<svg width="25" height="25" viewBox="0 0 25 25" fill="none" xmlns="http://www.w3.org/2000/svg">
<g filter="url(#filter0_d_3_59)">
<path fill-rule="evenodd" clip-rule="evenodd" d="M11.051 0.535006C11.631 -0.0449939 12.571 -0.0449939 13.151 0.535006L19.666 7.05101C20.246 7.63101 20.246 8.57001 19.666 9.14901L13.151 15.665C12.571 16.245 11.632 16.245 11.053 15.665L4.53598 9.15001C4.3978 9.01249 4.28815 8.84902 4.21334 8.669C4.13852 8.48898 4.10001 8.29595 4.10001 8.10101C4.10001 7.90606 4.13852 7.71303 4.21334 7.53301C4.28815 7.35299 4.3978 7.18953 4.53598 7.05201L11.051 0.535006Z" fill="#FFD700"/>
<path d="M11.016 0.49942C11.6155 -0.099687 12.5865 -0.0996915 13.1859 0.49942L19.7016 7.01602C20.3007 7.61544 20.3007 8.58551 19.7016 9.18399L13.1859 15.7006C12.5865 16.2997 11.6164 16.2997 11.018 15.7006L4.5004 9.18497C4.35774 9.04288 4.24466 8.87383 4.16739 8.6879C4.09009 8.50184 4.0502 8.30245 4.0502 8.10098C4.0502 7.8995 4.09008 7.70013 4.16739 7.51407C4.24467 7.32813 4.35773 7.15909 4.5004 7.017L11.016 0.49942Z" stroke="black" stroke-width="0.1"/>
</g>
<path d="M11.35 2.46133C11.7655 2.04626 12.4385 2.04609 12.8539 2.46133L17.7397 7.34903C18.1551 7.76452 18.1551 8.43628 17.7397 8.85098L12.8539 13.7387C12.4384 14.154 11.7657 14.154 11.351 13.7387L6.46329 8.85196C6.36434 8.75347 6.28542 8.63615 6.23184 8.50723C6.17839 8.37848 6.15082 8.24039 6.15079 8.10098C6.15079 7.96136 6.17826 7.82269 6.23184 7.69376C6.27199 7.59717 6.32673 7.5076 6.39297 7.42715L6.46329 7.34903L11.35 2.46133Z" fill="#B58CFF" stroke="black" stroke-width="0.1"/>
<path d="M11.6117 4.35294C11.8822 4.08248 12.3208 4.08247 12.5912 4.35294L15.848 7.61075C16.0847 7.84746 16.1145 8.21251 15.9369 8.48087L15.848 8.58926L12.5912 11.8471C12.3546 12.0837 11.9894 12.1134 11.7211 11.9359L11.6127 11.8471L8.3539 8.58926C8.28968 8.52526 8.23834 8.44936 8.20351 8.36563C8.1687 8.28185 8.15084 8.19171 8.15078 8.10098C8.15078 8.01009 8.16864 7.91929 8.20351 7.83536C8.23834 7.75163 8.28968 7.67573 8.3539 7.61172L11.6117 4.35294Z" fill="#383535" stroke="black" stroke-width="0.1"/>
<defs>
<filter id="filter0_d_3_59" x="0" y="0" width="24.201" height="24.2" filterUnits="userSpaceOnUse" color-interpolation-filters="sRGB">
<feFlood flood-opacity="0" result="BackgroundImageFix"/>
<feColorMatrix in="SourceAlpha" type="matrix" values="0 0 0 0 0 0 0 0 0 0 0 0 0 0 0 0 0 0 127 0" result="hardAlpha"/>
<feOffset dy="4"/>
<feGaussianBlur stdDeviation="2"/>
<feComposite in2="hardAlpha" operator="out"/>
<feColorMatrix type="matrix" values="0 0 0 0 0 0 0 0 0 0 0 0 0 0 0 0 0 0 0.25 0"/>
<feBlend mode="normal" in2="BackgroundImageFix" result="effect1_dropShadow_3_59"/>
<feBlend mode="normal" in="SourceGraphic" in2="effect1_dropShadow_3_59" result="shape"/>
</filter>
</defs>
</svg>
